<?xml version="1.0" encoding="UTF-8" standalone="no"?>
<svg width="48px" height="48px" viewBox="0 0 48 48" version="1.1" xmlns="http://www.w3.org/2000/svg" xmlns:xlink="http://www.w3.org/1999/xlink" xmlns:sketch="http://www.bohemiancoding.com/sketch/ns">
    <!-- Generator: Sketch 3.3.2 (12043) - http://www.bohemiancoding.com/sketch -->
    <title>- copy</title>
    <desc>Created with Sketch.</desc>
    <defs></defs>
    <g id="Stackfiles.io" stroke="none" stroke-width="1" fill="none" fill-rule="evenodd" sketch:type="MSPage">
        <g id="--copy" sketch:type="MSArtboardGroup" fill="#666666">
            <path d="M32,2 L8,2 C5.8,2 4,3.8 4,6 L4,34 L8,34 L8,6 L32,6 L32,2 L32,2 Z M38,10 L16,10 C13.8,10 12,11.8 12,14 L12,42 C12,44.2 13.8,46 16,46 L38,46 C40.2,46 42,44.2 42,42 L42,14 C42,11.8 40.2,10 38,10 L38,10 Z M38,42 L16,42 L16,14 L38,14 L38,42 L38,42 Z" id="Shape" sketch:type="MSShapeGroup"></path>
        </g>
    </g>
</svg>