<svg width="24" height="24" viewBox="0 0 24 24" xmlns="http://www.w3.org/2000/svg"><g fill="none" fill-rule="evenodd"><path d="M0 0h24v24H0z"/><path d="M12 2.4c-5.412 0-9.8 4.407-9.8 9.843 0 4.35 2.808 8.038 6.702 9.34.49.09.67-.214.67-.475 0-.233-.01-.852-.014-1.674-2.726.595-3.3-1.32-3.3-1.32-.447-1.136-1.09-1.44-1.09-1.44-.89-.61.068-.597.068-.597.983.07 1.5 1.014 1.5 1.014.875 1.505 2.295 1.07 2.853.82.088-.637.34-1.07.62-1.317-2.175-.248-4.463-1.093-4.463-4.865 0-1.074.382-1.953 1.01-2.64-.102-.25-.438-1.25.095-2.606 0 0 .823-.264 2.695 1.01.78-.22 1.62-.328 2.453-.332.833.004 1.67.113 2.454.33 1.87-1.272 2.692-1.008 2.692-1.008.535 1.355.198 2.356.098 2.605.628.688 1.007 1.567 1.007 2.64 0 3.783-2.29 4.615-4.473 4.858.35.304.665.905.665 1.823 0 1.316-.012 2.378-.012 2.7 0 .264.176.57.673.474 3.892-1.305 6.697-4.99 6.697-9.34C21.8 6.808 17.412 2.4 12 2.4" fill="#2196F3"/></g></svg>
