<?xml version="1.0" encoding="UTF-8" standalone="no"?>
<svg width="48px" height="48px" viewBox="0 0 48 48" version="1.1" xmlns="http://www.w3.org/2000/svg" xmlns:xlink="http://www.w3.org/1999/xlink" xmlns:sketch="http://www.bohemiancoding.com/sketch/ns">
    <!-- Generator: Sketch 3.3.2 (12043) - http://www.bohemiancoding.com/sketch -->
    <title>- github</title>
    <desc>Created with Sketch.</desc>
    <defs></defs>
    <g id="Stackfiles.io" stroke="none" stroke-width="1" fill="none" fill-rule="evenodd" sketch:type="MSPage">
        <g id="--github" sketch:type="MSArtboardGroup">
            <g id="embed" sketch:type="MSLayerGroup">
                <rect id="Rectangle-287-Copy" sketch:type="MSShapeGroup" x="0" y="0" width="48" height="48"></rect>
            </g>
            <path d="M19.8461538,28.4545455 C19.8461538,29.0227301 19.7560105,29.6051107 19.5757212,30.2017045 C19.3954318,30.7982984 19.0853387,31.3380658 18.6454327,31.8210227 C18.2055266,32.3039797 17.6826953,32.5454545 17.0769231,32.5454545 C16.4711508,32.5454545 15.9483195,32.3039797 15.5084135,31.8210227 C15.0685074,31.3380658 14.7584144,30.7982984 14.578125,30.2017045 C14.3978356,29.6051107 14.3076923,29.0227301 14.3076923,28.4545455 C14.3076923,27.8863608 14.3978356,27.3039803 14.578125,26.7073864 C14.7584144,26.1107925 15.0685074,25.5710251 15.5084135,25.0880682 C15.9483195,24.6051112 16.4711508,24.3636364 17.0769231,24.3636364 C17.6826953,24.3636364 18.2055266,24.6051112 18.6454327,25.0880682 C19.0853387,25.5710251 19.3954318,26.1107925 19.5757212,26.7073864 C19.7560105,27.3039803 19.8461538,27.8863608 19.8461538,28.4545455 L19.8461538,28.4545455 Z M33.6923077,28.4545455 C33.6923077,29.0227301 33.6021644,29.6051107 33.421875,30.2017045 C33.2415856,30.7982984 32.9314926,31.3380658 32.4915865,31.8210227 C32.0516805,32.3039797 31.5288492,32.5454545 30.9230769,32.5454545 C30.3173047,32.5454545 29.7944734,32.3039797 29.3545673,31.8210227 C28.9146613,31.3380658 28.6045682,30.7982984 28.4242788,30.2017045 C28.2439895,29.6051107 28.1538462,29.0227301 28.1538462,28.4545455 C28.1538462,27.8863608 28.2439895,27.3039803 28.4242788,26.7073864 C28.6045682,26.1107925 28.9146613,25.5710251 29.3545673,25.0880682 C29.7944734,24.6051112 30.3173047,24.3636364 30.9230769,24.3636364 C31.5288492,24.3636364 32.0516805,24.6051112 32.4915865,25.0880682 C32.9314926,25.5710251 33.2415856,26.1107925 33.421875,26.7073864 C33.6021644,27.3039803 33.6923077,27.8863608 33.6923077,28.4545455 L33.6923077,28.4545455 Z M37.1538462,28.4545455 C37.1538462,26.7499915 36.656255,25.3011423 35.6610577,24.1079545 C34.6658604,22.9147668 33.3173162,22.3181818 31.6153846,22.3181818 C31.0240355,22.3181818 29.6177996,22.4673281 27.3966346,22.765625 C26.372591,22.9218758 25.2403908,23 24,23 C22.7596092,23 21.627409,22.9218758 20.6033654,22.765625 C18.4110467,22.4673281 17.0048108,22.3181818 16.3846154,22.3181818 C14.6826838,22.3181818 13.3341396,22.9147668 12.3389423,24.1079545 C11.343745,25.3011423 10.8461538,26.7499915 10.8461538,28.4545455 C10.8461538,29.7045517 11.0769208,30.7947397 11.5384615,31.725142 C12.0000023,32.6555444 12.5841311,33.3870712 13.2908654,33.9197443 C13.9975997,34.4524174 14.8773986,34.8785495 15.9302885,35.1981534 C16.9831783,35.5177573 17.9927836,35.7272722 18.9591346,35.8267045 C19.9254856,35.9261369 20.9999941,35.9758523 22.1826923,35.9758523 L25.8173077,35.9758523 C27.0000059,35.9758523 28.0745144,35.9261369 29.0408654,35.8267045 C30.0072164,35.7272722 31.0168217,35.5177573 32.0697115,35.1981534 C33.1226014,34.8785495 34.0024003,34.4524174 34.7091346,33.9197443 C35.4158689,33.3870712 35.9999977,32.6555444 36.4615385,31.725142 C36.9230792,30.7947397 37.1538462,29.7045517 37.1538462,28.4545455 L37.1538462,28.4545455 Z M42,24.7045455 C42,27.6449011 41.5601006,29.9957298 40.6802885,31.7571023 C40.1322088,32.8508577 39.3713991,33.7954506 38.3978365,34.5909091 C37.424274,35.3863676 36.4074572,35.997157 35.3473558,36.4232955 C34.2872543,36.8494339 33.061305,37.1867885 31.6694712,37.4353693 C30.2776373,37.6839501 29.0408708,37.8401985 27.9591346,37.9041193 C26.8773984,37.9680401 25.6730836,38 24.3461538,38 C23.2211482,38 22.19712,37.9786934 21.2740385,37.9360795 C20.3509569,37.8934657 19.2872656,37.8046882 18.0829327,37.6697443 C16.8785997,37.5348005 15.7788511,37.3217344 14.7836538,37.0305398 C13.7884566,36.7393451 12.8004857,36.3735817 11.8197115,35.9332386 C10.8389374,35.4928955 9.96634998,34.9176172 9.20192308,34.2073864 C8.43749618,33.4971555 7.81731007,32.6804023 7.34134615,31.7571023 C6.44711091,30.0099344 6,27.6591057 6,24.7045455 C6,21.3380513 6.98075942,18.5255795 8.94230769,16.2670455 C8.55288267,15.1022669 8.35817308,13.8948926 8.35817308,12.6448864 C8.35817308,10.9971509 8.72595786,9.44887088 9.46153846,8 C11.0192386,8 12.3894172,8.28053697 13.5721154,8.84161932 C14.7548136,9.40270167 16.1177807,10.2798236 17.6610577,11.4730114 C19.7812606,10.9758498 22.0096037,10.7272727 24.3461538,10.7272727 C26.4807799,10.7272727 28.4999905,10.9545432 30.4038462,11.4090909 C31.9182768,10.2443124 33.266821,9.38494595 34.4495192,8.83096591 C35.6322175,8.27698587 36.9951846,8 38.5384615,8 C39.2740421,9.44887088 39.6418269,10.9971509 39.6418269,12.6448864 C39.6418269,13.880688 39.4471173,15.0738579 39.0576923,16.2244318 C41.0192406,18.4971705 42,21.3238467 42,24.7045455 L42,24.7045455 Z" id="" fill="#2196F3" sketch:type="MSShapeGroup"></path>
        </g>
    </g>
</svg>