<?xml version="1.0" encoding="UTF-8" standalone="no"?>
<svg width="48px" height="48px" viewBox="0 0 48 48" version="1.1" xmlns="http://www.w3.org/2000/svg" xmlns:xlink="http://www.w3.org/1999/xlink" xmlns:sketch="http://www.bohemiancoding.com/sketch/ns">
    <!-- Generator: Sketch 3.3.2 (12043) - http://www.bohemiancoding.com/sketch -->
    <title>- search icon</title>
    <desc>Created with Sketch.</desc>
    <defs></defs>
    <g id="Stackfiles.io" stroke="none" stroke-width="1" fill="none" fill-rule="evenodd" sketch:type="MSPage">
        <g id="--search-icon" sketch:type="MSArtboardGroup">
            <g id="icon-search" sketch:type="MSLayerGroup">
                <rect id="bpunds" sketch:type="MSShapeGroup" x="0" y="0" width="48" height="48"></rect>
                <path d="M31.51,30 L29.93,30 L29.37,29.46 C31.33,27.18 32.51,24.22 32.51,21 C32.51,13.82 26.69,8 19.51,8 C12.33,8 6.51,13.82 6.51,21 C6.51,28.18 12.33,34 19.51,34 C22.73,34 25.69,32.82 27.97,30.86 L28.51,31.42 L28.51,33 L38.51,42.98 L41.49,40 L31.51,30 L31.51,30 Z M19.51,30 C14.53,30 10.51,25.98 10.51,21 C10.51,16.02 14.53,12 19.51,12 C24.49,12 28.51,16.02 28.51,21 C28.51,25.98 24.49,30 19.51,30 L19.51,30 Z" id="shape" fill="#FFFFFF" sketch:type="MSShapeGroup"></path>
            </g>
        </g>
    </g>
</svg>