<svg width="140" height="123" viewBox="0 0 140 123" xmlns="http://www.w3.org/2000/svg"><title>-logo</title><g fill="none" fill-rule="evenodd"><g transform="translate(26)"><ellipse fill="#FFF" cx="44" cy="44" rx="44" ry="44"/><path opacity=".3" fill="#2196F3" d="M28 38h32v12H28z"/><path opacity=".5" fill="#2196F3" d="M28 38h32v12H28z"/><path opacity=".3" fill="#2196F3" d="M28 50h32v8H28z"/><path opacity=".7" fill="#2196F3" d="M28 20h32v10H28z"/><path opacity=".3" fill="#2196F3" d="M28 30h32v8H28z"/><path opacity=".7" fill="#2196F3" d="M28 58h32v10H28z"/><path opacity=".5" fill="#2196F3" d="M28 20h10v30H28zM50 38h10v30H50z"/></g><path d="M12.62 105.348c-.088.176-.19.3-.306.372-.116.072-.254.108-.414.108-.16 0-.34-.062-.54-.186s-.436-.262-.708-.414c-.272-.152-.59-.29-.954-.414s-.794-.186-1.29-.186c-.448 0-.838.054-1.17.162-.332.108-.612.258-.84.45-.228.192-.398.422-.51.69-.112.268-.168.562-.168.882 0 .408.114.748.342 1.02.228.272.53.504.906.696.376.192.804.364 1.284.516.48.152.97.314 1.47.486s.99.372 1.47.6c.48.228.908.516 1.284.864s.678.774.906 1.278c.228.504.342 1.116.342 1.836 0 .784-.134 1.518-.402 2.202-.268.684-.66 1.28-1.176 1.788-.516.508-1.146.908-1.89 1.2-.744.292-1.596.438-2.556.438-.552 0-1.096-.054-1.632-.162-.536-.108-1.05-.262-1.542-.462s-.952-.44-1.38-.72c-.428-.28-.81-.592-1.146-.936l.936-1.548c.088-.112.194-.206.318-.282.124-.076.262-.114.414-.114.2 0 .416.082.648.246.232.164.506.346.822.546.316.2.688.382 1.116.546.428.164.942.246 1.542.246.92 0 1.632-.218 2.136-.654.504-.436.756-1.062.756-1.878 0-.456-.114-.828-.342-1.116-.228-.288-.53-.53-.906-.726-.376-.196-.804-.362-1.284-.498s-.968-.284-1.464-.444c-.496-.16-.984-.352-1.464-.576-.48-.224-.908-.516-1.284-.876s-.678-.81-.906-1.35c-.228-.54-.342-1.206-.342-1.998 0-.632.126-1.248.378-1.848.252-.6.62-1.132 1.104-1.596.484-.464 1.078-.836 1.782-1.116.704-.28 1.508-.42 2.412-.42 1.024 0 1.968.16 2.832.48.864.32 1.6.768 2.208 1.344l-.792 1.524zm15.804-3.156v2.652h-5.22v14.7h-3.228v-14.7h-5.244v-2.652h13.692zm17.304 17.352h-2.496c-.28 0-.51-.07-.69-.21-.18-.14-.31-.314-.39-.522l-1.296-3.54h-7.188l-1.296 3.54c-.064.184-.19.352-.378.504-.188.152-.418.228-.69.228h-2.508l6.816-17.352h3.3l6.816 17.352zm-11.232-6.552h5.532l-2.112-5.772c-.096-.256-.202-.558-.318-.906-.116-.348-.23-.726-.342-1.134-.112.408-.222.788-.33 1.14-.108.352-.214.66-.318.924l-2.112 5.748zm24.948 2.46c.176 0 .328.068.456.204l1.272 1.38c-.704.872-1.57 1.54-2.598 2.004-1.028.464-2.262.696-3.702.696-1.288 0-2.446-.22-3.474-.66-1.028-.44-1.906-1.052-2.634-1.836s-1.286-1.72-1.674-2.808c-.388-1.088-.582-2.276-.582-3.564 0-1.304.216-2.498.648-3.582.432-1.084 1.04-2.018 1.824-2.802.784-.784 1.722-1.394 2.814-1.83 1.092-.436 2.298-.654 3.618-.654 1.288 0 2.414.206 3.378.618.964.412 1.79.958 2.478 1.638l-1.08 1.5c-.064.096-.146.18-.246.252-.1.072-.238.108-.414.108-.184 0-.372-.072-.564-.216-.192-.144-.436-.3-.732-.468-.296-.168-.67-.324-1.122-.468-.452-.144-1.026-.216-1.722-.216-.816 0-1.566.142-2.25.426-.684.284-1.272.69-1.764 1.218s-.876 1.17-1.152 1.926c-.276.756-.414 1.606-.414 2.55 0 .976.138 1.844.414 2.604.276.76.65 1.4 1.122 1.92.472.52 1.028.918 1.668 1.194.64.276 1.328.414 2.064.414.44 0 .838-.024 1.194-.072.356-.048.684-.124.984-.228.3-.104.584-.238.852-.402.268-.164.534-.366.798-.606.08-.072.164-.13.252-.174.088-.044.184-.066.288-.066zm7.5-5.988h.756c.304 0 .556-.042.756-.126.2-.084.372-.218.516-.402l4.788-6.06c.2-.256.41-.434.63-.534.22-.1.498-.15.834-.15h2.784l-5.844 7.212c-.184.224-.36.412-.528.564-.168.152-.348.276-.54.372.264.096.502.232.714.408.212.176.418.4.618.672l6.024 8.124h-2.856c-.384 0-.67-.054-.858-.162-.188-.108-.346-.266-.474-.474l-4.908-6.408c-.16-.208-.34-.358-.54-.45-.2-.092-.484-.138-.852-.138h-1.02v7.632h-3.228V102.18h3.228v7.284zm24.36-7.272v2.568h-7.692v5.136h6.492v2.58h-6.492v7.068H80.36v-17.352h10.944zm6.168 17.352h-3.24v-17.352h3.24v17.352zm7.128-2.664h6.948v2.664h-10.176v-17.352h3.228v14.688zm20.124-14.688v2.568h-7.692v4.812h6.06v2.484h-6.06v4.908h7.692v2.58H113.78v-17.352h10.944zm12.096 3.156c-.088.176-.19.3-.306.372-.116.072-.254.108-.414.108-.16 0-.34-.062-.54-.186s-.436-.262-.708-.414c-.272-.152-.59-.29-.954-.414s-.794-.186-1.29-.186c-.448 0-.838.054-1.17.162-.332.108-.612.258-.84.45-.228.192-.398.422-.51.69-.112.268-.168.562-.168.882 0 .408.114.748.342 1.02.228.272.53.504.906.696.376.192.804.364 1.284.516.48.152.97.314 1.47.486s.99.372 1.47.6c.48.228.908.516 1.284.864s.678.774.906 1.278c.228.504.342 1.116.342 1.836 0 .784-.134 1.518-.402 2.202-.268.684-.66 1.28-1.176 1.788-.516.508-1.146.908-1.89 1.2-.744.292-1.596.438-2.556.438-.552 0-1.096-.054-1.632-.162-.536-.108-1.05-.262-1.542-.462s-.952-.44-1.38-.72c-.428-.28-.81-.592-1.146-.936l.936-1.548c.088-.112.194-.206.318-.282.124-.076.262-.114.414-.114.2 0 .416.082.648.246.232.164.506.346.822.546.316.2.688.382 1.116.546.428.164.942.246 1.542.246.92 0 1.632-.218 2.136-.654.504-.436.756-1.062.756-1.878 0-.456-.114-.828-.342-1.116-.228-.288-.53-.53-.906-.726-.376-.196-.804-.362-1.284-.498s-.968-.284-1.464-.444c-.496-.16-.984-.352-1.464-.576-.48-.224-.908-.516-1.284-.876s-.678-.81-.906-1.35c-.228-.54-.342-1.206-.342-1.998 0-.632.126-1.248.378-1.848.252-.6.62-1.132 1.104-1.596.484-.464 1.078-.836 1.782-1.116.704-.28 1.508-.42 2.412-.42 1.024 0 1.968.16 2.832.48.864.32 1.6.768 2.208 1.344l-.792 1.524z" fill="#FFF"/></g></svg>