<?xml version="1.0" encoding="UTF-8" standalone="no"?>
<svg width="48px" height="48px" viewBox="0 0 48 48" version="1.1" xmlns="http://www.w3.org/2000/svg" xmlns:xlink="http://www.w3.org/1999/xlink" xmlns:sketch="http://www.bohemiancoding.com/sketch/ns">
    <!-- Generator: Sketch 3.3.2 (12043) - http://www.bohemiancoding.com/sketch -->
    <title>-my stack</title>
    <desc>Created with Sketch.</desc>
    <defs></defs>
    <g id="Stackfiles.io" stroke="none" stroke-width="1" fill="none" fill-rule="evenodd" sketch:type="MSPage">
        <g id="-my-stack" sketch:type="MSArtboardGroup" fill="#2196F3">
            <g sketch:type="MSLayerGroup" transform="translate(2.000000, 7.000000)" id="Shape">
                <path d="M34.5119792,12.5569459 L43,8.60764865 L25.0833333,0 L17.9381667,3.43289189 C18.9110417,3.85921622 19.7916458,4.45321622 20.5468333,5.17743243 L25.0833333,2.99764865 L36.6781042,8.56840541 L31.3604375,11.0425135 L25.0833333,13.9661351 L23.1555,13.0688919 C23.0005208,13.9848649 22.7066875,14.8491081 22.2946042,15.6473514 L25.0833333,16.9450541 L31.3434167,14.0321351 L36.6781042,16.5954324 L25.9863333,21.5721892 C26.9377083,22.1126757 27.7788958,22.7218378 28.4677917,23.3978919 L31.3434167,22.0591622 L36.6781042,24.6233514 L30.4484792,27.5228919 C30.449375,27.5648108 30.4583333,27.6058378 30.4583333,27.6486486 L30.4583333,30.4982432 L43,24.6608108 L34.5119792,20.583973 L43,16.6337838 L34.5119792,12.5569459 L34.5119792,12.5569459 Z M14.3333333,18.7297297 C18.2929167,18.7297297 21.5,15.5367568 21.5,11.5945946 C21.5,7.65243243 18.2929167,4.45945946 14.3333333,4.45945946 C10.37375,4.45945946 7.16666667,7.65243243 7.16666667,11.5945946 C7.16666667,15.5367568 10.37375,18.7297297 14.3333333,18.7297297 L14.3333333,18.7297297 Z M14.3333333,7.84864865 C16.4116667,7.84864865 18.0958333,9.52540541 18.0958333,11.5945946 C18.0958333,13.6637838 16.4116667,15.3405405 14.3333333,15.3405405 C12.255,15.3405405 10.5708333,13.6637838 10.5708333,11.5945946 C10.5708333,9.52540541 12.255,7.84864865 14.3333333,7.84864865 L14.3333333,7.84864865 Z M14.3333333,20.5135135 C9.54958333,20.5135135 0,22.9037838 0,27.6486486 L0,33 L28.6666667,33 L28.6666667,27.6486486 C28.6666667,22.9037838 19.1170833,20.5135135 14.3333333,20.5135135 L14.3333333,20.5135135 Z M25.2625,29.6108108 L3.40416667,29.6108108 L3.40416667,27.6486486 C3.40416667,26.507027 9.01208333,23.9027027 14.3333333,23.9027027 C19.6545833,23.9027027 25.2625,26.507027 25.2625,27.6486486 L25.2625,29.6108108 L25.2625,29.6108108 Z" sketch:type="MSShapeGroup"></path>
            </g>
        </g>
    </g>
</svg>